<?xml version="1.0" encoding="UTF-8"?>
<svg width="500" height="107" version="1.1" viewBox="0 0 500 107" xmlns="http://www.w3.org/2000/svg">
 <path d="m442.95 106.86c21.486 0 46.642-6.3747 55.726-24.832h-34.239c-2.6884 5.3594-12.42 8.3966-21.486 8.3966-26.839 0-28.845-13.107-29.866-18.793h86.92v-3.6881c0-35.588-34.564-42.629-59.388-42.629-55.378 0-60.753 29.866-60.753 38.932 0 31.882 27.526 42.612 63.088 42.612m-3.0077-64.776c10.726 0 23.824 3.6968 25.83 16.118h-51.668c2.0046-10.061 10.394-16.118 25.837-16.118m52.685-41.598h-104.03v13.09h104.03zm-425.83 56.043-29.874 3.0199c-21.134 1.6713-36.917 9.3998-36.917 24.496 0 16.108 19.471 22.817 38.582 22.817 22.515 0 33.245-6.373 40.621-11.399 0.9945 4.3563 1.3381 5.6961 3.3462 9.3842h35.577v-3.3548c-4.0231-0.66819-7.0412-2.6745-7.0412-12.067v-41.962c0-18.775-32.559-22.146-50.675-22.146-25.842 0-52.681 3.3705-56.378 26.856h32.212c0.6734-4.3754 3.6967-10.757 20.134-10.757 8.723 0 22.146 0.66819 22.146 9.0666 0 4.3736-6.6975 5.7117-11.732 6.0467m11.732 20.455c0 9.4102-15.091 15.106-29.869 15.106-6.3782 0-15.426-2.008-15.426-9.3842 0-8.3966 10.391-10.07 22.489-11.417 13.749-1.3277 19.463-2.6936 22.805-4.3649zm208.73-16.748c0-11.762 11.406-17.809 26.169-17.809 21.134 0 21.807 9.7452 21.807 15.113v47.304h33.236v-53.704c0-17.102-19.473-25.825-43.969-25.825-18.124 0-32.198 5.7031-36.574 12.076h-0.6699v-37.25h-33.22v104.7h33.22zm-104.71 46.624c46.32 0 56.399-22.481 57.398-30.535h-33.566c0 3.6881-5.6979 13.758-22.484 13.758-25.173 0-25.825-16.776-25.825-25.166 0-9.7365 5.6961-22.489 26.507-22.489 15.434-0.65951 20.462 7.3848 22.142 12.428h33.559c-3.0251-24.18-35.909-29.539-55.701-29.539-42.613 0-60.729 17.79-60.729 42.964 0 16.099 11.073 38.582 58.698 38.582" fill="#d70d66" fill-rule="evenodd"/>
</svg>
