<svg width="392" height="47" viewBox="0 0 392 47" fill="none" xmlns="http://www.w3.org/2000/svg">
<path d="M38.5254 14.0157C42.4012 14.0157 45.437 15.1288 47.633 17.3653C49.8694 19.6017 50.9826 22.8906 50.9826 27.2319V45.1436H46.8133V27.6468C46.8133 24.4389 46.0341 21.9899 44.4656 20.3101C42.9375 18.6302 40.7618 17.7802 37.9485 17.7802C34.7406 17.7802 32.2107 18.782 30.3689 20.7756C28.5272 22.7287 27.6063 25.4508 27.6063 28.9421V45.1537H23.437V27.6569C23.437 24.449 22.6578 22 21.0893 20.3202C19.5612 18.6403 17.3652 17.7903 14.5115 17.7903C11.3441 17.7903 8.81418 18.7921 6.93193 20.7857C5.09016 22.7388 4.16928 25.4609 4.16928 28.9522V45.1638H0V14.2484H3.99725V19.885C5.09016 18.0028 6.61822 16.5557 8.58143 15.5437C10.5345 14.5217 12.7912 14.0157 15.3312 14.0157C17.8712 14.0157 20.1481 14.5621 22.0304 15.6652C23.9531 16.7581 25.38 18.3873 26.3211 20.5428C27.4545 18.5088 29.0838 16.92 31.1988 15.7866C33.3542 14.6127 35.8032 14.0258 38.5355 14.0258L38.5254 14.0157ZM75.0268 45.4371C72.0516 45.4371 69.3699 44.7692 66.9817 43.4435C64.5935 42.0774 62.7112 40.1951 61.3451 37.8069C59.9789 35.4186 59.2908 32.7167 59.2908 29.7011C59.2908 26.6854 59.9789 23.9835 61.3451 21.5953C62.7112 19.207 64.5935 17.345 66.9817 16.0194C69.3699 14.6836 72.0516 14.0258 75.0268 14.0258C78.002 14.0258 80.6836 14.6937 83.0719 16.0194C85.4601 17.3551 87.3221 19.207 88.6478 21.5953C90.0139 23.9835 90.7021 26.6854 90.7021 29.7011C90.7021 32.7167 90.0139 35.4186 88.6478 37.8069C87.312 40.1951 85.4601 42.0774 83.0719 43.4435C80.6836 44.7793 78.002 45.4371 75.0268 45.4371ZM75.0268 41.7333C77.2227 41.7333 79.1758 41.2475 80.8962 40.2659C82.657 39.2439 84.0332 37.817 85.0047 35.9752C85.9863 34.1335 86.4721 32.0387 86.4721 29.6909C86.4721 27.3432 85.9863 25.2484 85.0047 23.4067C84.0231 21.5649 82.657 20.1583 80.8962 19.1767C79.1758 18.1546 77.2126 17.6486 75.0268 17.6486C72.841 17.6486 70.8575 18.1546 69.0967 19.1767C67.3764 20.1583 66.0001 21.5649 64.9881 23.4067C64.0065 25.2484 63.5208 27.3432 63.5208 29.6909C63.5208 32.0387 64.0065 34.1335 64.9881 35.9752C66.0102 37.817 67.3764 39.2439 69.0967 40.2659C70.8575 41.2475 72.8308 41.7333 75.0268 41.7333ZM114.969 14.0157C118.845 14.0157 121.921 15.1491 124.188 17.426C126.495 19.6624 127.649 22.931 127.649 27.2319V45.1436H123.479V27.6468C123.479 24.4389 122.68 21.9899 121.071 20.3101C119.462 18.6302 117.175 17.7802 114.2 17.7802C110.87 17.7802 108.229 18.782 106.276 20.7756C104.353 22.7287 103.402 25.4508 103.402 28.9421V45.1537H99.2329V14.2484H103.23V19.9458C104.364 18.0635 105.932 16.6164 107.926 15.6044C109.96 14.552 112.307 14.0157 114.969 14.0157ZM155.235 43.2613C154.456 43.9697 153.474 44.5162 152.3 44.9108C151.167 45.265 149.973 45.4371 148.718 45.4371C145.824 45.4371 143.587 44.6579 142.019 43.0893C140.45 41.5208 139.671 39.3147 139.671 36.4508V17.77H134.146V14.2484H139.671V7.49864H143.84V14.2484H153.241V17.77H143.84V36.208C143.84 38.0497 144.285 39.4564 145.186 40.438C146.127 41.3791 147.453 41.8446 149.183 41.8446C150.043 41.8446 150.863 41.7029 151.652 41.4297C152.472 41.1565 153.181 40.7618 153.767 40.2558L155.235 43.2512V43.2613ZM188.64 30.9863H162.794C163.027 34.1942 164.262 36.805 166.498 38.7986C168.734 40.7517 171.548 41.7333 174.958 41.7333C176.881 41.7333 178.641 41.3993 180.24 40.7314C181.849 40.0231 183.236 39.0111 184.41 37.6753L186.757 40.3773C185.391 42.0268 183.661 43.2715 181.586 44.1316C179.552 44.9918 177.296 45.4269 174.837 45.4269C171.669 45.4269 168.846 44.759 166.377 43.4334C163.948 42.0672 162.045 40.185 160.679 37.7968C159.313 35.4085 158.625 32.7066 158.625 29.6909C158.625 26.6753 159.273 23.9734 160.568 21.5851C161.904 19.1969 163.705 17.3349 165.972 16.0092C168.279 14.6734 170.87 14.0157 173.723 14.0157C176.577 14.0157 179.147 14.6836 181.414 16.0092C183.681 17.3349 185.462 19.1969 186.757 21.5851C188.053 23.9329 188.7 26.6348 188.7 29.6909L188.64 30.9863ZM173.723 17.598C170.748 17.598 168.239 18.5594 166.204 20.472C164.211 22.3542 163.067 24.8133 162.794 27.8694H184.703C184.43 24.8133 183.276 22.3441 181.242 20.472C179.249 18.5493 176.739 17.598 173.723 17.598ZM197.181 14.2484H201.35V45.1436H197.181V14.2484ZM199.296 7.48852C198.435 7.48852 197.707 7.19505 197.12 6.60811C196.533 6.02118 196.239 5.3128 196.239 4.49312C196.239 3.67343 196.533 3.02577 197.12 2.43883C197.707 1.8519 198.435 1.55843 199.296 1.55843C200.156 1.55843 200.884 1.8519 201.471 2.43883C202.058 2.98529 202.352 3.65319 202.352 4.4324C202.352 5.29257 202.058 6.02118 201.471 6.60811C200.884 7.19505 200.156 7.48852 199.296 7.48852ZM216.954 20.2999C217.936 18.2254 219.383 16.6569 221.296 15.6044C223.249 14.552 225.657 14.0157 228.521 14.0157V18.0635L227.519 18.0028C224.271 18.0028 221.721 19.0046 219.889 20.9982C218.047 22.9918 217.126 25.7949 217.126 29.3975V45.1335H212.957V14.2484H216.954V20.2999ZM248.416 45.4371C245.441 45.4371 242.759 44.7692 240.371 43.4435C237.983 42.0774 236.101 40.1951 234.734 37.8069C233.368 35.4186 232.68 32.7167 232.68 29.7011C232.68 26.6854 233.368 23.9835 234.734 21.5953C236.101 19.207 237.983 17.345 240.371 16.0194C242.759 14.6836 245.441 14.0258 248.416 14.0258C251.391 14.0258 254.073 14.6937 256.461 16.0194C258.849 17.3551 260.711 19.207 262.037 21.5953C263.403 23.9835 264.091 26.6854 264.091 29.7011C264.091 32.7167 263.403 35.4186 262.037 37.8069C260.701 40.1951 258.849 42.0774 256.461 43.4435C254.073 44.7793 251.391 45.4371 248.416 45.4371ZM248.416 41.7333C250.612 41.7333 252.565 41.2475 254.286 40.2659C256.046 39.2439 257.423 37.817 258.394 35.9752C259.376 34.1335 259.861 32.0387 259.861 29.6909C259.861 27.3432 259.376 25.2484 258.394 23.4067C257.413 21.5649 256.046 20.1583 254.286 19.1767C252.565 18.1546 250.602 17.6486 248.416 17.6486C246.23 17.6486 244.247 18.1546 242.486 19.1767C240.766 20.1583 239.389 21.5649 238.378 23.4067C237.396 25.2484 236.91 27.3432 236.91 29.6909C236.91 32.0387 237.396 34.1335 238.378 35.9752C239.4 37.817 240.766 39.2439 242.486 40.2659C244.247 41.2475 246.23 41.7333 248.416 41.7333Z" fill="#E9DED2"/>
<path d="M304.276 14.2889L291.253 45.1537H282.013L269.05 14.2889H278.289L286.83 35.2871L295.665 14.2889H304.276Z" fill="#E9DED2"/>
<path d="M316.875 14.2889H307.93V45.1537H316.875V14.2889Z" fill="#E9DED2"/>
<path d="M312.402 9.97794C310.753 9.97794 309.417 9.50231 308.385 8.54095C307.353 7.58971 306.837 6.39559 306.837 4.98897C306.837 3.58234 307.353 2.38823 308.385 1.43698C309.417 0.485741 310.753 0 312.402 0C314.052 0 315.388 0.455382 316.42 1.37627C317.452 2.29715 317.968 3.44067 317.968 4.81694C317.968 6.30452 317.452 7.54923 316.42 8.54095C315.388 9.4922 314.052 9.97794 312.402 9.97794Z" fill="#E9DED2"/>
<path d="M339.088 45.6091C335.799 45.6091 332.834 44.9412 330.193 43.6054C327.592 42.2291 325.548 40.3368 324.05 37.9283C322.593 35.5198 321.875 32.7875 321.875 29.7213C321.875 26.6551 322.603 23.9228 324.05 21.5143C325.538 19.1058 327.592 17.2337 330.193 15.8878C332.834 14.5115 335.799 13.8234 339.088 13.8234C342.377 13.8234 345.17 14.5115 347.578 15.8878C350.027 17.2236 351.808 19.1564 352.911 21.6863L345.969 25.4103C344.36 22.5769 342.053 21.1601 339.027 21.1601C336.69 21.1601 334.767 21.9292 333.229 23.4573C331.701 24.9853 330.932 27.07 330.932 29.7112C330.932 32.3524 331.701 34.437 333.229 35.9651C334.757 37.4932 336.69 38.2622 339.027 38.2622C342.083 38.2622 344.401 36.8455 345.969 34.012L352.911 37.7967C351.798 40.2457 350.027 42.1583 347.578 43.5346C345.17 44.9108 342.336 45.599 339.088 45.599V45.6091Z" fill="#E9DED2"/>
<path d="M371.096 33.0405L366.796 37.2907V45.1537H357.84V2.58049H366.796V26.6753L379.87 14.2889H390.546L377.695 27.3634L391.69 45.1537H380.852L371.096 33.0405Z" fill="#E9DED2"/>
</svg>
